<svg width="760" height="97" viewBox="0 0 760 97" fill="none" xmlns="http://www.w3.org/2000/svg">
  <path fill-rule="evenodd" clip-rule="evenodd" d="M49.7729 23.9089C51.8032 25.606 52.9397 27.9696 53.1821 30.9999H77.3638C77.3335 24.9089 75.8184 19.5908 72.8184 15.0453C69.8486 10.4696 65.6213 6.92407 60.1367 4.40894C54.6519 1.8938 48.1519 0.63623 40.6367 0.63623C33.2729 0.63623 26.7427 1.87866 21.0457 4.36353C15.3792 6.84839 10.9397 10.3181 7.72754 14.7726C4.54565 19.1969 2.96997 24.3635 3.00024 30.2726C2.96997 37.5453 5.31836 43.2877 10.0457 47.4999C14.8032 51.6816 21.3032 54.6665 29.5457 56.4545L38.8184 58.4545C42.2729 59.212 45.0154 60.0302 47.0457 60.9089C49.0759 61.7574 50.5305 62.7272 51.4094 63.8181C52.3184 64.8787 52.7881 66.1211 52.8184 67.5453C52.7881 69.0604 52.3032 70.4089 51.3638 71.5908C50.4246 72.7726 49.0457 73.6969 47.2275 74.3635C45.4094 75.0302 43.1519 75.3635 40.4548 75.3635C37.2427 75.3635 34.47 74.8635 32.1367 73.8635C29.8335 72.8635 28.0457 71.3938 26.7729 69.4545C25.5002 67.515 24.7881 65.1211 24.6367 62.2726H0.636719C0.666992 70.0604 2.3335 76.4545 5.63672 81.4545C8.96997 86.4241 13.6367 90.106 19.6367 92.4999C25.667 94.8938 32.7275 96.0908 40.8184 96.0908C48.6973 96.0908 55.4397 94.9847 61.0457 92.7726C66.6821 90.5604 71.0154 87.3333 74.0457 83.0908C77.0759 78.8484 78.6062 73.6665 78.6367 67.5453C78.6062 63.9999 78.0305 60.7272 76.9094 57.7272C75.8184 54.7272 74.1062 52.0302 71.7729 49.6362C69.4397 47.212 66.4397 45.106 62.7729 43.3181C59.1062 41.5302 54.6973 40.0908 49.5457 38.9999L41.9094 37.3635C39.6973 36.9089 37.7881 36.3938 36.1821 35.8181C34.5759 35.2423 33.2578 34.606 32.2275 33.9089C31.1973 33.1816 30.4397 32.3787 29.9548 31.4999C29.5002 30.5908 29.3032 29.5757 29.3638 28.4545C29.3943 27.0908 29.8032 25.8787 30.5911 24.818C31.3792 23.7574 32.5911 22.9241 34.2275 22.318C35.8943 21.6816 38.0305 21.3635 40.6367 21.3635C44.7275 21.3635 47.7729 22.212 49.7729 23.9089ZM88.6138 25.1816V94.9999H113.705V54.2726C113.705 52.2423 114.038 50.4999 114.705 49.0453C115.402 47.5604 116.371 46.4241 117.614 45.6362C118.856 44.8484 120.341 44.4545 122.068 44.4545C124.675 44.4545 126.75 45.3333 128.296 47.0908C129.841 48.8181 130.614 51.212 130.614 54.2726V94.9999H154.614V54.2726C154.614 51.212 155.356 48.8181 156.841 47.0908C158.356 45.3333 160.402 44.4545 162.978 44.4545C165.583 44.4545 167.659 45.3333 169.205 47.0908C170.75 48.8181 171.523 51.212 171.523 54.2726V94.9999H196.614V47.9089C196.614 40.7574 194.523 35.0302 190.341 30.7272C186.19 26.4241 180.765 24.2726 174.068 24.2726C168.887 24.2726 164.371 25.5757 160.523 28.1816C156.675 30.7574 154.159 34.1816 152.978 38.4545H152.25C151.523 34.1816 149.387 30.7574 145.841 28.1816C142.296 25.5757 138.068 24.2726 133.159 24.2726C128.311 24.2726 124.129 25.5453 120.614 28.0908C117.099 30.6362 114.614 34.0908 113.159 38.4545H112.432V25.1816H88.6138ZM216.625 93.9089C220.05 95.3635 223.989 96.0908 228.443 96.0908C231.474 96.0908 234.246 95.7272 236.762 94.9999C239.307 94.2726 241.565 93.106 243.534 91.4999C245.534 89.8938 247.231 87.7877 248.625 85.1816H249.171V94.9999H272.625V47.1816C272.625 43.9393 271.883 40.9393 270.398 38.1816C268.943 35.3938 266.822 32.9696 264.034 30.9089C261.246 28.8181 257.868 27.1969 253.898 26.0453C249.928 24.8635 245.443 24.2726 240.443 24.2726C233.504 24.2726 227.716 25.3635 223.08 27.5453C218.443 29.6969 214.913 32.5757 212.489 36.1816C210.095 39.7574 208.746 43.6665 208.443 47.9089H231.534C231.837 45.7574 232.731 44.1665 234.216 43.1362C235.731 42.0757 237.686 41.5453 240.08 41.5453C242.262 41.5453 244.05 42.0302 245.443 42.9999C246.837 43.9696 247.534 45.3635 247.534 47.1816V47.3635C247.534 48.6969 247.004 49.7726 245.943 50.5908C244.883 51.3787 243.156 51.9999 240.762 52.4545C238.398 52.8787 235.262 53.2423 231.353 53.5453C227.746 53.8181 224.383 54.4089 221.262 55.3181C218.171 56.2272 215.458 57.5453 213.125 59.2726C210.792 60.9999 208.974 63.2272 207.671 65.9545C206.368 68.6514 205.716 71.9089 205.716 75.7272C205.716 80.3635 206.686 84.1816 208.625 87.1816C210.565 90.1816 213.231 92.4241 216.625 93.9089ZM241.989 79.0908C240.322 79.8787 238.534 80.2726 236.625 80.2726C234.504 80.2726 232.762 79.7574 231.398 78.7272C230.034 77.6969 229.353 76.212 229.353 74.2726C229.353 73.0604 229.64 71.9696 230.216 70.9999C230.822 69.9999 231.731 69.1665 232.943 68.4999C234.186 67.8029 235.777 67.3029 237.716 66.9999C238.716 66.8484 239.671 66.6816 240.58 66.4999C241.519 66.3181 242.398 66.1211 243.216 65.9089C244.065 65.6969 244.853 65.4696 245.58 65.2272C245.946 65.1101 246.301 64.9895 246.645 64.8655C247.014 64.7325 247.371 64.5956 247.716 64.4545V70.2726C247.716 72.3938 247.186 74.1969 246.125 75.6816C245.065 77.1665 243.686 78.3029 241.989 79.0908ZM284.614 25.1816V94.9999H309.705V58.6362C309.705 55.9696 310.265 53.6514 311.387 51.6816C312.508 49.6816 314.038 48.1362 315.978 47.0453C317.947 45.9241 320.159 45.3635 322.614 45.3635C323.917 45.3635 325.478 45.4696 327.296 45.6816C329.114 45.8938 330.644 46.212 331.887 46.6362V25.2272C330.887 24.9241 329.841 24.6969 328.75 24.5453C327.69 24.3635 326.614 24.2726 325.523 24.2726C321.796 24.2726 318.538 25.4089 315.75 27.6816C312.993 29.9545 310.978 33.5453 309.705 38.4545H308.978V25.1816H284.614ZM384.625 43.3635V25.1816H372.625V8.45447H347.534V25.1816H338.625V43.3635H347.534V74.9089C347.474 79.7877 348.428 83.8484 350.398 87.0908C352.367 90.3333 355.307 92.712 359.216 94.2272C363.125 95.712 367.959 96.3029 373.716 95.9999C376.565 95.8484 379.019 95.5302 381.08 95.0453C383.171 94.5604 384.777 94.1514 385.898 93.8181L382.261 76.1816C381.777 76.3029 381.019 76.4545 379.989 76.6362C378.989 76.8181 378.11 76.9089 377.352 76.9089C376.261 76.9089 375.367 76.7574 374.671 76.4545C373.974 76.1211 373.459 75.6362 373.125 74.9999C372.792 74.3333 372.625 73.515 372.625 72.5453V43.3635H384.625ZM396 1.90894V94.9999H439.819C446.576 94.9999 452.394 93.8635 457.273 91.5908C462.152 89.3181 465.909 86.1969 468.546 82.2272C471.212 78.2574 472.546 73.7272 472.546 68.6362C472.546 64.2423 471.576 60.4241 469.636 57.1816C467.697 53.9089 465.091 51.3484 461.819 49.4999C458.546 47.6211 454.909 46.606 450.909 46.4545V45.5453C454.515 44.8181 457.667 43.515 460.364 41.6362C463.061 39.7272 465.152 37.3635 466.636 34.5453C468.152 31.7272 468.909 28.606 468.909 25.1816C468.909 20.4545 467.667 16.3484 465.182 12.8635C462.727 9.37866 459.076 6.68164 454.227 4.77258C449.409 2.86353 443.455 1.90894 436.364 1.90894H396ZM433.091 74.8181H421.273V55.1816H433.455C436.031 55.1816 438.227 55.5757 440.046 56.3635C441.894 57.1514 443.319 58.3029 444.319 59.8181C445.319 61.3333 445.819 63.1816 445.819 65.3635C445.819 68.4847 444.758 70.8484 442.636 72.4545C440.515 74.0302 437.334 74.8181 433.091 74.8181ZM431.636 39.5453H421.273V21.7272H432C435.152 21.7272 437.758 22.4999 439.819 24.0453C441.879 25.5604 442.909 27.7574 442.909 30.6362C442.909 32.5453 442.425 34.1665 441.455 35.4999C440.515 36.8029 439.197 37.8029 437.5 38.4999C435.803 39.1969 433.849 39.5453 431.636 39.5453ZM483.636 79.1362C486.515 84.5302 490.652 88.7423 496.046 91.7726C501.44 94.7726 507.925 96.2726 515.5 96.2726C523.076 96.2726 529.561 94.7726 534.955 91.7726C540.349 88.7423 544.485 84.5302 547.364 79.1362C550.242 73.712 551.682 67.4241 551.682 60.2726C551.682 53.1211 550.242 46.8484 547.364 41.4545C544.485 36.0302 540.349 31.8181 534.955 28.818C529.561 25.7877 523.076 24.2726 515.5 24.2726C507.925 24.2726 501.44 25.7877 496.046 28.818C490.652 31.8181 486.515 36.0302 483.636 41.4545C480.758 46.8484 479.319 53.1211 479.319 60.2726C479.319 67.4241 480.758 73.712 483.636 79.1362ZM521.182 75.5908C519.636 77.015 517.803 77.7272 515.682 77.7272C513.44 77.7272 511.515 77.015 509.909 75.5908C508.303 74.1665 507.076 72.1362 506.227 69.4999C505.379 66.8635 504.955 63.7272 504.955 60.0908C504.955 56.4241 505.379 53.2877 506.227 50.6816C507.076 48.0453 508.303 46.015 509.909 44.5908C511.515 43.1665 513.44 42.4545 515.682 42.4545C517.803 42.4545 519.636 43.1665 521.182 44.5908C522.727 46.015 523.925 48.0453 524.773 50.6816C525.621 53.2877 526.046 56.4241 526.046 60.0908C526.046 63.7272 525.621 66.8635 524.773 69.4999C523.925 72.1362 522.727 74.1665 521.182 75.5908ZM569.5 93.9089C572.925 95.3635 576.864 96.0908 581.319 96.0908C584.349 96.0908 587.121 95.7272 589.636 94.9999C592.182 94.2726 594.44 93.106 596.409 91.4999C598.409 89.8938 600.106 87.7877 601.5 85.1816H602.046V94.9999H625.5V47.1816C625.5 43.9393 624.758 40.9393 623.273 38.1816C621.819 35.3938 619.697 32.9696 616.909 30.9089C614.121 28.8181 610.742 27.1969 606.773 26.0453C602.803 24.8635 598.319 24.2726 593.319 24.2726C586.379 24.2726 580.591 25.3635 575.955 27.5453C571.319 29.6969 567.788 32.5757 565.364 36.1816C562.97 39.7574 561.621 43.6665 561.319 47.9089H584.409C584.712 45.7574 585.606 44.1665 587.091 43.1362C588.606 42.0757 590.561 41.5453 592.955 41.5453C595.136 41.5453 596.925 42.0302 598.319 42.9999C599.712 43.9696 600.409 45.3635 600.409 47.1816V47.3635C600.409 48.6969 599.879 49.7726 598.819 50.5908C597.758 51.3787 596.031 51.9999 593.636 52.4545C591.273 52.8787 588.136 53.2423 584.227 53.5453C580.621 53.8181 577.258 54.4089 574.136 55.3181C571.046 56.2272 568.334 57.5453 566 59.2726C563.667 60.9999 561.849 63.2272 560.546 65.9545C559.242 68.6514 558.591 71.9089 558.591 75.7272C558.591 80.3635 559.561 84.1816 561.5 87.1816C563.44 90.1816 566.106 92.4241 569.5 93.9089ZM594.864 79.0908C593.197 79.8787 591.409 80.2726 589.5 80.2726C587.379 80.2726 585.636 79.7574 584.273 78.7272C582.909 77.6969 582.227 76.212 582.227 74.2726C582.227 73.0604 582.515 71.9696 583.091 70.9999C583.697 69.9999 584.606 69.1665 585.819 68.4999C587.061 67.8029 588.652 67.3029 590.591 66.9999C591.591 66.8484 592.546 66.6816 593.455 66.4999C594.394 66.3181 595.273 66.1211 596.091 65.9089C596.94 65.6969 597.727 65.4696 598.455 65.2272C599.212 64.9847 599.925 64.7272 600.591 64.4545V70.2726C600.591 72.3938 600.061 74.1969 599 75.6816C597.94 77.1665 596.561 78.3029 594.864 79.0908ZM637.489 25.1816V94.9999H662.58V58.6362C662.58 55.9696 663.14 53.6514 664.261 51.6816C665.383 49.6816 666.913 48.1362 668.852 47.0453C670.822 45.9241 673.034 45.3635 675.489 45.3635C676.792 45.3635 678.352 45.4696 680.171 45.6816C681.989 45.8938 683.519 46.212 684.761 46.6362V25.2272C683.761 24.9241 682.716 24.6969 681.625 24.5453C680.565 24.3635 679.489 24.2726 678.398 24.2726C674.671 24.2726 671.413 25.4089 668.625 27.6816C665.867 29.9545 663.852 33.5453 662.58 38.4545H661.852V25.1816H637.489ZM700.534 91.9999C704.716 94.606 709.292 95.9089 714.261 95.9089C717.534 95.9089 720.444 95.3787 722.989 94.3181C725.565 93.2272 727.746 91.7574 729.534 89.9089C731.352 88.0302 732.746 85.9089 733.716 83.5453H734.261V94.9999H759.171V1.90894H734.08V37.3635H733.716C732.807 34.9999 731.474 32.8333 729.716 30.8635C727.959 28.8635 725.777 27.2726 723.171 26.0908C720.565 24.8787 717.534 24.2726 714.08 24.2726C709.474 24.2726 705.08 25.4999 700.898 27.9545C696.746 30.4089 693.352 34.2726 690.716 39.5453C688.11 44.8181 686.807 51.6665 686.807 60.0908C686.807 68.1514 688.05 74.8333 690.534 80.1362C693.05 85.4393 696.383 89.3938 700.534 91.9999ZM729.444 74.6362C727.807 75.9696 725.837 76.6362 723.534 76.6362C721.231 76.6362 719.261 75.9847 717.625 74.6816C716.019 73.3484 714.777 71.4545 713.898 68.9999C713.05 66.515 712.625 63.5453 712.625 60.0908C712.625 56.6362 713.05 53.6816 713.898 51.2272C714.777 48.7423 716.019 46.8484 717.625 45.5453C719.261 44.212 721.231 43.5453 723.534 43.5453C725.837 43.5453 727.807 44.212 729.444 45.5453C731.11 46.8484 732.383 48.7423 733.261 51.2272C734.171 53.6816 734.625 56.6362 734.625 60.0908C734.625 63.4847 734.171 66.4241 733.261 68.9089C732.383 71.3635 731.11 73.2726 729.444 74.6362Z" fill="url(#paint0_linear_158_4530)"/>
  <defs>
    <linearGradient id="paint0_linear_158_4530" x1="-3" y1="48.0001" x2="766" y2="48.0001" gradientUnits="userSpaceOnUse">
      <stop stop-color="#D56DFB"/>
      <stop offset="1" stop-color="#0085FF"/>
    </linearGradient>
  </defs>
</svg>